<svg width="100" height="100" viewBox="0 0 100 100" fill="none" xmlns="http://www.w3.org/2000/svg">
<path fill-rule="evenodd" clip-rule="evenodd" d="M10 0C4.47715 0 0 4.47716 0 10V90C0 95.5229 4.47716 100 10 100H90C95.5229 100 100 95.5228 100 90V10C100 4.47715 95.5228 0 90 0H10ZM51.6315 16.4918L82.7096 37.2106C83.5066 37.7418 83.9999 38.6906 84 39.6391V60.3578C84 61.3065 83.5066 62.2553 82.7097 62.7864L51.6317 83.5082C50.5612 84.1669 49.4291 84.1609 48.3683 83.5082L17.2903 62.7864C16.4933 62.2552 16 61.3065 16 60.3578V39.6391C16 38.6906 16.4933 37.7418 17.2901 37.2106L48.3682 16.4918C49.4387 15.8331 50.5708 15.8391 51.6315 16.4918ZM75.8035 39.6391L52.9218 24.3845V38.0074L65.5959 46.4696L75.8035 39.6391ZM47.0781 38.0074V24.3845L24.1964 39.6391L34.4039 46.4696L47.0781 38.0074ZM29.1674 49.9985L21.8437 45.1035V54.8936L29.1674 49.9985ZM24.1964 60.358L47.0781 75.6126V61.9897L34.4039 53.5275L24.1964 60.358ZM39.6784 49.9985L49.9999 56.9048L60.3214 49.9985L49.9999 43.0923L39.6784 49.9985ZM52.9218 61.9897V75.6126L75.8035 60.358L65.5959 53.5275L52.9218 61.9897ZM70.8325 49.9985L78.1561 54.8936V45.1035L70.8325 49.9985Z" fill="#D1CED5"/>
</svg>
