<svg width="80" height="81" viewBox="0 0 80 81" fill="none" xmlns="http://www.w3.org/2000/svg">
<path d="M71.4286 0H8.57143C3.83929 0 0 3.85502 0 8.60656V71.7213C0 76.4728 3.83929 80.3279 8.57143 80.3279H71.4286C76.1607 80.3279 80 76.4728 80 71.7213V8.60656C80 3.85502 76.1607 0 71.4286 0ZM49.5179 68.7987C48.0179 69.0676 47.4643 68.1352 47.4643 67.3642C47.4643 66.396 47.5 61.4472 47.5 57.4488C47.5 54.6516 46.5714 52.8765 45.4821 51.9442C52.0893 51.209 59.0536 50.2946 59.0536 38.8371C59.0536 35.5738 57.8929 33.9421 56 31.8443C56.3036 31.0733 57.3214 27.8996 55.6964 23.7756C53.2143 23.0046 47.5357 26.9851 47.5357 26.9851C45.1786 26.3217 42.625 25.981 40.1071 25.981C37.5893 25.981 35.0357 26.3217 32.6786 26.9851C32.6786 26.9851 27 23.0046 24.5179 23.7756C22.8929 27.8817 23.8929 31.0553 24.2143 31.8443C22.3214 33.9421 21.4286 35.5738 21.4286 38.8371C21.4286 50.2408 28.0893 51.209 34.6964 51.9442C33.8393 52.7152 33.0714 54.042 32.8036 55.9426C31.1071 56.7136 26.7679 58.0405 24.1786 53.4503C22.5536 50.6173 19.625 50.3842 19.625 50.3842C16.7321 50.3484 19.4286 52.2131 19.4286 52.2131C21.3571 53.1096 22.7143 56.5523 22.7143 56.5523C24.4464 61.8776 32.7321 60.0845 32.7321 60.0845C32.7321 62.5768 32.7679 66.6291 32.7679 67.3642C32.7679 68.1352 32.2321 69.0676 30.7143 68.7987C18.9286 64.8361 10.6786 53.5758 10.6786 40.415C10.6786 23.9549 23.2143 11.4575 39.6071 11.4575C56 11.4575 69.2857 23.9549 69.2857 40.415C69.3036 53.5758 61.3036 64.854 49.5179 68.7987ZM32 57.8432C31.6607 57.915 31.3393 57.7715 31.3036 57.5384C31.2679 57.2695 31.5 57.0364 31.8393 56.9647C32.1786 56.9288 32.5 57.0722 32.5357 57.3053C32.5893 57.5384 32.3571 57.7715 32 57.8432ZM30.3036 57.6819C30.3036 57.915 30.0357 58.1122 29.6786 58.1122C29.2857 58.1481 29.0179 57.9508 29.0179 57.6819C29.0179 57.4488 29.2857 57.2515 29.6429 57.2515C29.9821 57.2157 30.3036 57.4129 30.3036 57.6819ZM27.8571 57.4846C27.7857 57.7177 27.4286 57.8253 27.125 57.7177C26.7857 57.646 26.5536 57.377 26.625 57.144C26.6964 56.9109 27.0536 56.8033 27.3571 56.875C27.7143 56.9826 27.9464 57.2515 27.8571 57.4846ZM25.6607 56.5164C25.5 56.7136 25.1607 56.6778 24.8929 56.4088C24.625 56.1757 24.5536 55.835 24.7321 55.6737C24.8929 55.4764 25.2321 55.5123 25.5 55.7812C25.7321 56.0143 25.8214 56.373 25.6607 56.5164ZM24.0357 54.8847C23.875 54.9923 23.5714 54.8847 23.375 54.6158C23.1786 54.3468 23.1786 54.042 23.375 53.9165C23.5714 53.7551 23.875 53.8806 24.0357 54.1496C24.2321 54.4185 24.2321 54.7413 24.0357 54.8847V54.8847ZM22.875 53.1455C22.7143 53.3069 22.4464 53.2172 22.25 53.0379C22.0536 52.8048 22.0179 52.5359 22.1786 52.4103C22.3393 52.249 22.6071 52.3386 22.8036 52.5179C23 52.751 23.0357 53.02 22.875 53.1455ZM21.6786 51.8186C21.6071 51.98 21.375 52.0159 21.1786 51.8904C20.9464 51.7828 20.8393 51.5855 20.9107 51.4242C20.9821 51.3166 21.1786 51.2628 21.4107 51.3525C21.6429 51.478 21.75 51.6752 21.6786 51.8186Z" fill="#d1ced5"/>
</svg>
