<svg width="500" height="500" viewBox="0 0 500 500" fill="none" xmlns="http://www.w3.org/2000/svg">
<rect width="500" height="500" rx="61" fill="#030823"/>
<path d="M142.732 373.836C143.113 367.353 145.211 360.108 149.024 352.1C152.837 343.711 157.223 337.228 162.18 332.652C192.687 349.431 217.473 357.82 236.54 357.82C255.988 357.82 270.288 354.579 279.44 348.096C288.973 341.613 293.74 333.033 293.74 322.356C293.74 305.577 281.728 292.612 257.704 283.46L225.672 271.448C177.243 253.144 153.028 225.879 153.028 189.652C153.028 163.34 162.371 142.748 181.056 127.876C200.123 112.623 224.909 104.996 255.416 104.996C286.304 104.996 317.001 111.86 347.508 125.588C347.508 133.215 345.792 141.223 342.36 149.612C339.309 158.001 335.115 164.484 329.776 169.06C302.701 156.476 277.343 150.184 253.7 150.184C241.116 150.184 231.011 153.235 223.384 159.336C216.139 165.437 212.516 173.064 212.516 182.216C212.516 191.368 215.185 198.423 220.524 203.38C226.244 208.337 235.396 213.295 247.98 218.252L282.3 231.408C330.729 250.093 354.944 278.693 354.944 317.208C354.944 343.52 344.839 364.303 324.628 379.556C304.417 394.809 276.961 402.436 242.26 402.436C207.559 402.436 174.383 392.903 142.732 373.836Z" fill="white"/>
</svg>

