<svg width="100" height="100" viewBox="0 0 100 100" fill="none" xmlns="http://www.w3.org/2000/svg">
<path d="M0 0V100H100V0H0ZM83.0804 23.683L77.7232 28.817C77.2545 29.1741 77.0312 29.7545 77.1205 30.3125V68.1027C77.0312 68.683 77.2545 69.2634 77.7232 69.5982L82.9688 74.7321V75.8705H56.6295V74.7768L62.0536 69.5089C62.5893 68.9732 62.5893 68.817 62.5893 68.0134V37.4554L47.5 75.7589H45.4687L27.9018 37.4554V63.125C27.7455 64.1964 28.125 65.2902 28.8839 66.0714L35.9375 74.6205V75.7589H15.8929V74.6205L22.9464 66.0714C23.7054 65.2902 24.0402 64.1964 23.8616 63.125V33.4375C23.9509 32.6116 23.6384 31.808 23.0134 31.25L16.7411 23.683V22.5446H36.2277L51.2723 55.5804L64.5089 22.567H83.0804V23.683Z" fill="#D1CED5"/>
</svg>
